<svg id="visual" viewBox="0 0 960 540" width="960" height="540" xmlns="http://www.w3.org/2000/svg" xmlns:xlink="http://www.w3.org/1999/xlink" version="1.1"><rect x="0" y="0" width="960" height="540" fill="#fcbc31"></rect><path d="M0 339L26.7 347C53.3 355 106.7 371 160 372.5C213.3 374 266.7 361 320 358.7C373.3 356.3 426.7 364.7 480 367.3C533.3 370 586.7 367 640 364.5C693.3 362 746.7 360 800 361.5C853.3 363 906.7 368 933.3 370.5L960 373L960 541L933.3 541C906.7 541 853.3 541 800 541C746.7 541 693.3 541 640 541C586.7 541 533.3 541 480 541C426.7 541 373.3 541 320 541C266.7 541 213.3 541 160 541C106.7 541 53.3 541 26.7 541L0 541Z" fill="#ffa16b"></path><path d="M0 388L26.7 394.7C53.3 401.3 106.7 414.7 160 415.8C213.3 417 266.7 406 320 399.7C373.3 393.3 426.7 391.7 480 391.8C533.3 392 586.7 394 640 397.7C693.3 401.3 746.7 406.7 800 410C853.3 413.3 906.7 414.7 933.3 415.3L960 416L960 541L933.3 541C906.7 541 853.3 541 800 541C746.7 541 693.3 541 640 541C586.7 541 533.3 541 480 541C426.7 541 373.3 541 320 541C266.7 541 213.3 541 160 541C106.7 541 53.3 541 26.7 541L0 541Z" fill="#ff8670"></path><path d="M0 443L26.7 444.5C53.3 446 106.7 449 160 452.3C213.3 455.7 266.7 459.3 320 455.8C373.3 452.3 426.7 441.7 480 440.2C533.3 438.7 586.7 446.3 640 451.7C693.3 457 746.7 460 800 457.8C853.3 455.7 906.7 448.3 933.3 444.7L960 441L960 541L933.3 541C906.7 541 853.3 541 800 541C746.7 541 693.3 541 640 541C586.7 541 533.3 541 480 541C426.7 541 373.3 541 320 541C266.7 541 213.3 541 160 541C106.7 541 53.3 541 26.7 541L0 541Z" fill="#fe6b7e"></path><path d="M0 472L26.7 475.2C53.3 478.3 106.7 484.7 160 486.5C213.3 488.3 266.7 485.7 320 484.8C373.3 484 426.7 485 480 485.2C533.3 485.3 586.7 484.7 640 483.3C693.3 482 746.7 480 800 477.5C853.3 475 906.7 472 933.3 470.5L960 469L960 541L933.3 541C906.7 541 853.3 541 800 541C746.7 541 693.3 541 640 541C586.7 541 533.3 541 480 541C426.7 541 373.3 541 320 541C266.7 541 213.3 541 160 541C106.7 541 53.3 541 26.7 541L0 541Z" fill="#f45494"></path></svg>